<?xml version="1.0" standalone="no"?>
<!DOCTYPE svg PUBLIC "-//W3C//DTD SVG 20010904//EN"
 "http://www.w3.org/TR/2001/REC-SVG-20010904/DTD/svg10.dtd">
<svg version="1.0" xmlns="http://www.w3.org/2000/svg"
 width="214.000000pt" height="214.000000pt" viewBox="0 0 214.000000 214.000000"
 preserveAspectRatio="xMidYMid meet">
<metadata>
Created by potrace 1.11, written by Peter Selinger 2001-2013
</metadata>
<g transform="translate(0.000000,214.000000) scale(0.100000,-0.100000)"
fill="#000000" stroke="none">
<path d="M1625 2130 c5 -8 3 -11 -6 -8 -8 3 -29 -1 -46 -8 -18 -7 -33 -11 -33
-8 0 3 -13 -4 -29 -15 -15 -11 -31 -18 -35 -14 -3 3 -6 -1 -6 -10 0 -9 -5 -19
-12 -23 -7 -5 -9 -2 -4 7 12 23 -84 -83 -105 -116 -10 -16 -19 -39 -18 -50 0
-11 3 -14 6 -7 8 20 22 14 16 -8 -3 -12 -8 -19 -11 -16 -6 7 -60 -67 -72 -100
-5 -13 -14 -24 -20 -24 -5 0 -10 -7 -10 -16 0 -10 -6 -14 -15 -10 -17 6 -21
-9 -5 -19 6 -3 10 -11 10 -16 0 -6 -4 -7 -10 -4 -6 4 -10 -6 -11 -22 l0 -28
-10 25 c-14 34 -20 198 -7 206 16 10 34 -14 20 -28 -7 -7 -12 -28 -11 -48 l1
-35 7 30 c4 17 15 42 25 57 l17 26 -64 11 c-60 10 -193 2 -252 -16 -18 -5 -18
-6 5 -15 16 -6 26 -5 28 1 4 12 32 15 32 4 0 -5 -5 -26 -12 -48 -6 -22 -11
-46 -9 -52 1 -7 -3 -13 -10 -13 -7 0 -9 -13 -6 -37 3 -21 3 -31 1 -21 -7 22
-36 33 -32 11 2 -9 -3 -18 -9 -20 -7 -3 -13 3 -13 12 0 9 -5 13 -11 10 -5 -4
-9 -17 -8 -28 3 -40 -2 -42 -16 -8 -8 18 -15 46 -15 62 0 16 -4 29 -9 29 -5 0
-19 15 -30 33 -11 18 -32 40 -46 47 -15 8 -32 24 -38 36 -15 28 -221 184 -242
184 -9 0 -14 4 -11 9 9 14 -20 21 -82 20 -39 0 -51 -3 -37 -8 17 -7 13 -10
-23 -20 -23 -7 -58 -21 -77 -32 -19 -12 -35 -18 -35 -14 0 4 -7 2 -15 -5 -8
-7 -12 -16 -9 -21 3 -5 1 -9 -3 -9 -15 0 -7 -168 8 -195 4 -5 6 -38 5 -72 0
-33 2 -60 5 -58 3 2 12 -11 21 -30 9 -21 11 -36 5 -38 -5 -1 -3 -9 5 -17 14
-15 18 -23 18 -38 0 -21 116 -125 179 -159 70 -39 71 -40 51 -58 -11 -10 -20
-23 -20 -28 0 -6 3 -7 6 -4 4 3 16 1 28 -5 17 -9 19 -8 9 3 -7 7 -13 19 -13
26 0 11 4 11 21 1 15 -10 19 -20 15 -40 -3 -16 -1 -28 4 -28 6 0 10 -8 10 -17
-1 -15 -5 -13 -24 9 -13 15 -27 24 -30 21 -3 -3 -12 0 -21 7 -13 11 -17 7 -30
-23 -8 -20 -14 -56 -14 -79 1 -24 3 -35 6 -25 5 21 20 22 39 2 8 -8 22 -12 32
-9 14 4 13 3 -2 -7 -18 -11 -18 -12 5 -25 l24 -14 -23 -6 c-17 -5 -21 -11 -16
-28 3 -11 13 -28 20 -37 16 -17 19 -43 5 -35 -5 4 -7 -3 -4 -14 3 -11 9 -17
14 -14 10 6 12 -19 3 -29 -4 -3 -15 -2 -26 4 -18 10 -19 9 -4 -18 14 -28 14
-29 -12 -31 -14 -1 -22 1 -19 5 4 3 2 12 -4 20 -9 9 -8 13 0 13 6 0 11 5 11
10 0 6 -9 10 -20 10 -15 0 -20 -7 -20 -27 1 -43 41 -84 52 -52 5 14 35 1 42
-18 4 -11 2 -13 -9 -9 -20 7 -19 -4 2 -21 16 -13 15 -14 -12 -8 -16 4 -33 12
-37 18 -4 6 -10 8 -14 4 -13 -12 29 -119 59 -154 16 -18 61 -48 102 -67 40
-19 76 -40 80 -46 3 -5 11 -8 16 -5 9 6 58 -24 87 -52 7 -7 16 -13 20 -14 27
-3 45 -9 58 -20 12 -10 12 -14 2 -20 -9 -6 -3 -11 20 -15 29 -6 46 -24 21 -24
-5 0 -7 -5 -3 -12 4 -7 3 -8 -5 -4 -6 4 -9 11 -6 16 3 4 -6 11 -20 14 -16 4
-25 13 -25 26 0 12 -7 20 -16 20 -8 0 -25 5 -37 12 -45 25 -83 14 -39 -11 9
-6 13 -10 7 -10 -23 0 -130 25 -126 29 7 8 -19 50 -29 50 -5 0 0 -20 12 -45
12 -25 25 -40 28 -34 11 18 160 -26 176 -52 5 -9 -9 -11 -54 -6 -75 6 -74 -8
1 -18 28 -3 60 -9 70 -11 30 -9 18 -24 -20 -25 -21 -1 -30 -3 -20 -6 9 -2 17
-9 17 -14 0 -5 12 -10 28 -10 16 -1 20 -3 10 -6 -10 -2 -18 -6 -18 -8 0 -13
35 -75 42 -75 5 0 6 -4 3 -10 -3 -5 -1 -10 4 -10 6 0 11 -9 11 -20 0 -11 7
-20 16 -20 8 0 13 -4 9 -9 -3 -5 4 -12 15 -16 11 -3 20 -13 20 -21 0 -8 8 -18
18 -21 24 -10 42 -29 34 -38 -4 -4 4 -4 17 0 15 4 21 3 17 -3 -8 -13 28 -22
91 -22 70 0 173 40 239 93 55 44 64 57 39 57 -8 0 -15 -4 -15 -10 0 -5 -7 -10
-15 -10 -8 0 -15 -6 -15 -14 0 -8 -9 -18 -20 -21 -11 -4 -18 -11 -15 -16 4 -5
-3 -9 -14 -9 -12 0 -21 3 -21 6 0 12 38 53 44 47 3 -3 6 1 6 10 0 9 10 23 21
31 14 10 20 22 16 35 -3 13 1 21 14 24 11 3 19 12 19 21 0 10 8 16 22 16 20 0
20 1 5 18 -23 25 -4 42 44 42 20 0 42 7 49 15 10 12 5 13 -39 8 -28 -3 -51 -3
-51 1 0 23 25 47 60 57 22 7 37 16 34 20 -7 11 -1 11 30 -1 17 -6 26 -6 26 0
0 6 3 9 8 8 16 -4 48 13 60 32 17 28 -6 36 -63 23 -33 -7 -42 -7 -39 2 8 19
54 41 62 29 4 -6 18 -14 32 -17 25 -6 29 0 85 112 32 66 58 126 58 135 0 9 4
16 9 16 4 0 8 21 8 46 0 43 -1 45 -17 33 -15 -11 -16 -11 -5 1 6 8 12 22 12
33 0 10 4 16 9 13 5 -3 8 29 8 73 0 44 -4 78 -9 75 -13 -8 -9 11 5 25 10 10 8
11 -7 5 -19 -7 -19 -7 0 24 l18 32 -42 85 c-40 81 -56 99 -64 73 -2 -6 -12
-12 -22 -14 -16 -2 -15 0 4 21 l22 24 -27 35 c-15 19 -25 40 -23 45 1 5 19 20
38 33 45 30 114 135 140 212 15 46 20 90 21 176 1 150 -8 194 -47 247 -26 34
-100 62 -180 68 -23 1 -48 6 -54 10 -9 6 -11 4 -5 -5z m-1208 -86 c-3 -3 -12
-4 -19 -1 -8 3 -5 6 6 6 11 1 17 -2 13 -5z m40 0 c-3 -3 -12 -4 -19 -1 -8 3
-5 6 6 6 11 1 17 -2 13 -5z m-227 -74 c0 -5 -5 -10 -11 -10 -5 0 -7 5 -4 10 3
6 8 10 11 10 2 0 4 -4 4 -10z m1154 -35 c-4 -8 -8 -15 -10 -15 -2 0 -4 7 -4
15 0 8 4 15 10 15 5 0 7 -7 4 -15z m-344 -131 c0 -13 -3 -14 -15 -4 -8 7 -15
21 -15 32 0 17 2 18 15 4 8 -8 15 -22 15 -32z m410 0 c8 -16 18 -30 22 -32 25
-11 50 -40 44 -50 -5 -9 -14 -9 -33 2 -24 12 -28 11 -67 -28 l-41 -41 -3 29
c-2 16 2 33 10 37 11 7 10 11 -1 18 -12 8 -13 14 -3 36 7 16 17 23 24 19 8 -5
9 -2 5 10 -4 10 -4 22 -1 27 9 16 28 5 44 -27z m-805 -84 c3 -5 1 -10 -4 -10
-6 0 -11 5 -11 10 0 6 2 10 4 10 3 0 8 -4 11 -10z m602 -92 c-3 -7 -5 -2 -5
12 0 14 2 19 5 13 2 -7 2 -19 0 -25z m-577 13 c-1 -15 -26 -47 -37 -46 -36 1
-25 49 12 51 14 1 25 -1 25 -5z m900 -41 c0 -29 -5 -42 -20 -50 -11 -6 -27
-24 -35 -41 -9 -16 -20 -27 -25 -24 -13 8 -13 58 -1 71 5 5 11 25 13 44 2 25
8 35 20 35 9 0 20 3 24 7 14 14 24 -4 24 -42z m-700 4 c0 -8 -5 -12 -10 -9 -6
4 -8 11 -5 16 9 14 15 11 15 -7z m690 -175 c0 -5 -4 -9 -10 -9 -5 0 -10 7 -10
16 0 8 5 12 10 9 6 -3 10 -10 10 -16z m44 -24 c-5 -11 -2 -14 12 -9 16 6 17 5
7 -7 -21 -22 -15 -31 10 -14 21 13 23 13 23 -5 0 -10 -4 -16 -8 -14 -7 5 -12
-9 -10 -27 1 -3 -6 -6 -14 -6 -9 0 -13 6 -9 16 3 9 -3 6 -13 -7 -24 -31 -35
-17 -16 20 8 16 12 33 9 38 -3 6 -3 15 0 20 9 15 15 12 9 -5z m-314 -59 c8
-11 10 -17 3 -13 -7 4 -13 0 -16 -10 -3 -10 -5 -3 -6 16 0 19 0 32 2 30 1 -2
9 -13 17 -23z m267 9 c0 -8 -4 -12 -9 -9 -4 3 -8 9 -8 15 0 5 4 9 8 9 5 0 9
-7 9 -15z m124 -26 c-12 -12 -24 -19 -27 -17 -2 3 6 15 17 27 12 12 24 20 27
17 3 -4 -5 -16 -17 -27z m-136 -108 c-6 -14 -7 -14 -15 -1 -5 9 -4 31 3 54
l12 38 3 -37 c2 -21 0 -45 -3 -54z m64 82 c-4 -22 2 -43 10 -39 5 4 12 0 14
-6 3 -7 6 -3 6 10 1 12 5 22 10 22 5 0 17 3 26 6 15 6 15 4 4 -14 -10 -16 -16
-18 -22 -9 -6 8 -7 6 -3 -6 3 -10 -2 -30 -11 -45 -15 -25 -14 -25 10 3 15 17
26 33 27 38 0 4 5 7 11 7 8 0 9 -4 0 -13 -6 -8 -8 -16 -5 -20 3 -3 1 -15 -5
-26 -10 -17 -9 -20 5 -14 13 5 15 2 10 -18 -6 -20 -5 -21 4 -7 6 10 12 31 13
47 1 16 7 27 13 24 6 -2 17 3 24 11 13 16 30 13 30 -5 0 -6 -4 -7 -10 -4 -5 3
-7 0 -4 -8 3 -8 0 -18 -5 -22 -6 -3 -9 -11 -5 -16 3 -5 -9 -27 -26 -48 -17
-22 -27 -42 -23 -44 11 -7 54 29 46 37 -4 3 -1 6 5 6 7 0 12 7 12 15 0 8 4 15
9 15 5 0 7 -22 6 -50 -2 -35 1 -48 9 -44 6 4 -4 -7 -21 -24 -35 -33 -47 -57
-13 -27 30 27 24 9 -11 -35 -26 -32 -29 -41 -20 -58 7 -13 7 -23 1 -27 -5 -3
-19 -20 -32 -38 -15 -21 -17 -27 -5 -18 9 7 17 9 17 3 0 -5 -16 -22 -35 -36
-22 -17 -32 -21 -29 -11 3 8 10 15 15 15 5 0 9 10 9 23 0 17 -7 11 -31 -28
-17 -28 -27 -39 -23 -25 3 14 7 29 8 35 0 5 8 15 16 22 13 11 12 12 -6 13 -12
0 -25 -9 -30 -20 -7 -15 -9 -4 -9 40 0 33 2 56 3 50 7 -19 24 -10 19 9 -3 11
2 29 10 41 8 11 12 26 10 33 -3 6 -6 4 -6 -6 -1 -10 -6 -17 -13 -15 -19 7 -20
24 -3 41 20 21 19 26 -5 20 -24 -6 -26 6 -5 33 8 10 14 26 15 34 0 12 -2 12
-9 2 -6 -10 -10 -8 -15 10 -6 21 -7 21 -17 6 -17 -29 -29 -20 -13 10 16 31 19
66 4 57 -18 -11 -10 11 10 30 24 21 27 50 5 41 -8 -3 -15 -1 -15 4 0 5 8 11
18 13 9 3 18 5 20 6 1 0 1 -2 1 -6z m-301 -38 c-3 -3 -9 2 -12 12 -6 14 -5 15
5 6 7 -7 10 -15 7 -18z m19 -7 c-3 -7 -5 -2 -5 12 0 14 2 19 5 13 2 -7 2 -19
0 -25z m43 17 c0 -8 -4 -15 -10 -15 -5 0 -7 7 -4 15 4 8 8 15 10 15 2 0 4 -7
4 -15z m-726 -34 c-6 -6 -24 19 -24 34 1 6 7 1 15 -9 8 -11 12 -22 9 -25z
m110 23 c3 -8 2 -12 -4 -9 -6 3 -10 10 -10 16 0 14 7 11 14 -7z m56 -17 c0
-18 -2 -19 -10 -7 -13 20 -13 43 0 35 6 -3 10 -16 10 -28z m60 13 c0 -11 -4
-20 -10 -20 -5 0 -10 9 -10 20 0 11 5 20 10 20 6 0 10 -9 10 -20z m-192 -41
c-5 -3 -6 -14 -2 -25 4 -10 3 -16 -1 -12 -10 9 -15 69 -7 83 4 5 9 -1 12 -15
4 -14 3 -28 -2 -31z m171 -1 c1 -5 -3 -8 -9 -8 -5 0 -10 12 -9 28 0 24 1 25 9
7 5 -11 9 -23 9 -27z m-269 8 c0 -7 7 -19 15 -26 16 -13 20 -30 7 -30 -5 0
-16 16 -25 35 -9 19 -12 35 -7 35 6 0 10 -6 10 -14z m88 -70 c23 -47 47 -72
56 -57 4 5 2 12 -4 16 -5 3 -10 12 -10 18 0 7 7 4 15 -6 7 -11 11 -25 9 -31
-3 -7 2 -19 11 -26 12 -10 15 -10 15 1 0 7 12 1 29 -15 l28 -27 7 27 c4 16 2
31 -5 38 -8 8 -10 5 -5 -14 5 -18 0 -14 -18 15 -25 39 -36 42 -16 5 8 -16 7
-19 -10 -17 -20 1 -29 17 -9 17 5 0 8 3 5 8 -2 4 -1 23 4 42 4 20 8 26 9 14 1
-11 8 -29 17 -40 15 -18 15 -18 5 3 -17 34 -12 40 9 14 12 -14 20 -18 20 -10
1 8 8 2 16 -13 15 -30 30 -38 20 -13 -3 8 -1 15 5 15 6 0 8 3 6 8 -3 4 1 13 9
20 12 11 14 10 14 -3 0 -18 17 -20 23 -2 2 6 4 -1 4 -17 0 -19 -2 -24 -8 -15
-13 20 -12 -2 3 -59 9 -37 13 -42 19 -26 5 12 8 14 8 4 0 -8 -6 -26 -14 -40
-13 -23 -14 -23 -16 -5 -1 17 -2 16 -9 -5 -4 -14 -8 -31 -9 -37 -2 -20 17 -15
22 5 4 13 5 11 6 -5 0 -13 -3 -23 -8 -23 -4 0 -3 -16 3 -35 l11 -34 15 49 c17
54 30 73 30 44 1 -16 3 -15 15 6 l14 25 1 -30 c0 -41 -10 -76 -21 -69 -5 3 -9
-7 -9 -21 0 -14 -3 -24 -7 -22 -7 5 -9 -52 -4 -98 2 -18 3 -18 9 -3 6 15 11
13 35 -17 16 -20 21 -32 12 -29 -11 5 -14 2 -8 -12 4 -11 3 -15 -4 -11 -8 5
-8 -4 -3 -28 5 -22 4 -35 -2 -35 -6 0 -7 -11 -4 -24 3 -14 1 -30 -7 -38 -13
-14 -14 -36 -4 -78 4 -15 0 -11 -9 10 -14 30 -17 32 -24 16 -6 -18 -7 -18 -13
-3 -4 10 -18 22 -32 29 -14 6 -25 17 -25 25 0 7 -5 13 -11 13 -5 0 -7 -5 -3
-12 5 -8 1 -9 -12 -5 -18 7 -18 6 -1 -7 14 -11 15 -15 3 -25 -10 -9 -16 -8
-26 4 -7 8 -19 15 -26 15 -15 0 -15 21 1 32 15 11 -9 30 -29 22 -16 -6 -16 -8
0 -25 29 -33 -6 -33 -79 0 -73 33 -146 91 -114 91 22 0 22 6 -3 32 -21 23 -27
58 -10 58 6 0 10 -6 10 -14 0 -35 171 -146 195 -126 9 7 16 6 25 -5 7 -8 18
-15 24 -15 6 0 -2 12 -18 26 -35 31 -29 42 7 13 20 -15 25 -16 21 -5 -4 10 -1
16 7 16 8 0 5 8 -8 23 l-21 22 26 25 c17 17 23 20 19 8 -4 -12 -1 -16 14 -15
23 2 23 -1 4 44 -8 19 -15 41 -14 47 0 6 8 -9 18 -34 10 -24 24 -46 30 -48 7
-2 17 -15 22 -29 5 -14 12 -23 15 -20 3 3 1 14 -5 25 -8 15 -8 22 2 25 7 3 0
9 -15 15 -26 11 -27 15 -27 76 1 56 -5 101 -28 206 -3 14 -8 19 -10 12 -3 -6
-10 -9 -15 -6 -8 5 -9 -3 -5 -22 9 -45 -7 -63 -24 -26 -8 19 -29 38 -57 51
-26 13 -40 26 -36 33 4 6 -1 17 -10 24 -10 7 -16 14 -14 16 2 1 -12 20 -31 41
-26 28 -37 34 -44 25 -5 -9 -7 -3 -3 14 3 15 2 30 -4 33 -5 3 -10 13 -10 22 0
25 25 -1 48 -51z m152 36 c0 -15 -2 -15 -10 -2 -13 20 -13 33 0 25 6 -3 10
-14 10 -23z m-325 -2 c3 -5 2 -10 -4 -10 -5 0 -13 5 -16 10 -3 6 -2 10 4 10 5
0 13 -4 16 -10z m402 -12 c-3 -8 -6 -5 -6 6 -1 11 2 17 5 13 3 -3 4 -12 1 -19z
m644 8 c-6 -7 -9 -20 -5 -29 3 -8 1 -17 -3 -20 -5 -3 -9 4 -8 16 0 23 12 47
22 47 3 0 0 -6 -6 -14z m-812 -26 c11 -24 11 -24 -3 -6 -9 11 -16 24 -16 30 0
12 5 7 19 -24z m710 -2 c1 6 6 12 12 12 5 0 7 -5 3 -11 -4 -8 0 -8 15 0 11 7
21 16 21 21 0 6 5 10 12 10 6 0 3 -9 -7 -20 -10 -11 -14 -20 -8 -20 20 0 1
-58 -23 -69 -14 -6 -39 -34 -57 -63 -21 -34 -33 -46 -35 -35 -2 10 -7 15 -11
12 -5 -2 -7 7 -5 20 3 31 -21 34 -36 4 -9 -16 -14 -18 -26 -8 -16 13 -20 44
-4 34 9 -6 15 8 11 29 -1 5 1 16 4 25 5 12 8 12 14 3 5 -9 14 1 26 28 l19 41
13 -28 c7 -15 11 -20 8 -10 -2 9 0 17 5 17 6 0 10 6 10 14 0 23 24 25 32 2 3
-12 6 -15 7 -8z m-579 -11 c0 -5 -4 -5 -10 -2 -5 3 -10 14 -10 23 0 15 2 15
10 2 5 -8 10 -19 10 -23z m419 -43 c-7 -18 -13 -24 -16 -16 -3 8 0 19 6 25 6
6 12 25 12 42 2 27 2 27 6 4 2 -14 -1 -38 -8 -55z m-769 34 c0 -6 -6 -6 -14 1
-10 8 -16 9 -21 1 -9 -15 -25 -12 -25 4 0 8 8 16 18 18 19 5 42 -9 42 -24z
m40 -6 c0 -15 -2 -15 -10 -2 -13 20 -13 33 0 25 6 -3 10 -14 10 -23z m425 8
c3 -5 1 -10 -4 -10 -6 0 -11 5 -11 10 0 6 2 10 4 10 3 0 8 -4 11 -10z m-351
-7 c4 -5 12 -8 18 -8 6 0 12 -7 14 -15 2 -8 6 -26 9 -40 6 -21 5 -23 -7 -10
-7 8 -20 16 -28 18 -11 3 -9 -3 6 -20 39 -43 40 -54 3 -31 -38 24 -64 79 -47
101 12 14 21 15 32 5z m333 -50 c-3 -10 -5 -4 -5 12 0 17 2 24 5 18 2 -7 2
-21 0 -30z m633 17 c0 -5 -5 -10 -11 -10 -5 0 -7 5 -4 10 3 6 8 10 11 10 2 0
4 -4 4 -10z m-950 -118 c12 -27 13 -62 2 -47 -4 6 -18 17 -31 25 -17 12 -24
26 -26 60 l-4 44 25 -30 c14 -16 29 -39 34 -52z m360 48 c0 -5 -2 -10 -4 -10
-3 0 -8 5 -11 10 -3 6 -1 10 4 10 6 0 11 -4 11 -10z m32 -12 c-7 -7 -12 -8
-12 -2 0 14 12 26 19 19 2 -3 -1 -11 -7 -17z m-55 -30 c-3 -8 -6 -5 -6 6 -1
11 2 17 5 13 3 -3 4 -12 1 -19z m805 -6 c-2 -16 -10 -29 -18 -29 -19 0 -18 16
3 39 21 23 20 23 15 -10z m-448 -52 c6 -8 1 -7 -11 4 -13 10 -20 23 -16 29 4
7 8 6 11 -3 3 -8 10 -22 16 -30z m106 30 c0 -5 -4 -10 -9 -10 -6 0 -13 5 -16
10 -3 6 1 10 9 10 9 0 16 -4 16 -10z m-826 -21 c15 -12 25 -28 22 -35 -3 -8 1
-14 11 -14 9 0 13 -3 10 -7 -4 -3 -2 -12 4 -20 14 -17 -2 -17 -21 0 -8 6 -6 1
6 -13 28 -35 32 -80 6 -80 -15 0 -19 -5 -15 -20 4 -14 0 -20 -11 -20 -14 0
-15 -4 -6 -22 8 -17 4 -15 -14 7 -28 33 -32 45 -15 45 8 0 8 5 -1 15 -10 12
-10 15 4 15 19 0 21 19 3 26 -7 2 -14 21 -14 40 -1 26 2 33 10 25 18 -18 29
-12 21 12 -4 12 -9 24 -13 27 -3 3 -12 13 -20 23 -19 24 1 21 33 -4z m333 -1
c-3 -8 -6 -5 -6 6 -1 11 2 17 5 13 3 -3 4 -12 1 -19z m542 3 c12 -8 12 -12 2
-25 -18 -22 -41 -20 -41 2 0 31 14 39 39 23z m-196 -38 c4 -21 3 -32 -4 -30
-6 1 -13 -9 -15 -22 -4 -21 -2 -22 12 -10 15 12 16 12 11 -6 -12 -38 -16 -95
-7 -95 6 0 10 -9 10 -20 0 -11 -4 -20 -10 -20 -5 0 -10 -10 -10 -23 0 -13 -4
-27 -9 -32 -5 -6 -12 -26 -14 -45 -3 -19 -3 -6 -2 30 2 36 7 82 11 104 4 23 3
36 -3 33 -5 -3 -15 4 -22 15 -12 19 -11 20 13 14 14 -3 26 -2 26 3 0 12 -30
36 -31 25 0 -5 -4 0 -9 11 -13 31 -11 62 5 68 11 5 13 0 8 -26 -5 -31 -5 -31
10 -12 9 11 17 33 17 49 0 36 5 32 13 -11z m-503 -3 c-20 -13 -43 -13 -35 0 3
6 16 10 28 10 18 0 19 -2 7 -10z m975 1 c-9 -8 -36 -10 -30 -2 2 4 11 8 20 8
8 0 13 -3 10 -6z m-930 -32 c8 -23 1 -34 -14 -24 -13 8 -15 45 -2 45 5 0 13
-9 16 -21z m365 -35 c0 -27 -4 -43 -10 -39 -11 7 -13 45 -4 69 10 26 14 18 14
-30z m-450 22 c0 -8 -7 -16 -15 -20 -15 -5 -21 14 -8 27 11 12 23 8 23 -7z
m127 -8 c-3 -8 -6 -5 -6 6 -1 11 2 17 5 13 3 -3 4 -12 1 -19z m456 -19 c-3
-11 -10 -22 -16 -26 -6 -4 -8 2 -4 18 4 13 7 31 7 39 0 12 2 13 9 1 5 -7 6
-22 4 -32z m397 -16 c-17 -14 -30 -30 -30 -36 1 -7 9 -2 19 11 24 27 41 29 34
2 -3 -11 -13 -20 -22 -20 -14 0 -14 -2 -1 -11 11 -8 12 -12 2 -16 -6 -2 -10
-9 -7 -13 3 -5 1 -11 -4 -15 -6 -3 -8 3 -6 13 2 11 -5 26 -16 35 -24 21 -24
19 1 -37 19 -46 19 -46 0 -59 -11 -6 -20 -16 -20 -20 0 -5 13 1 29 12 25 18
29 19 27 5 -3 -21 -45 -56 -60 -51 -6 2 -19 -5 -28 -15 -14 -14 -15 -18 -4
-18 8 0 18 5 21 10 3 6 14 10 23 10 9 -1 -1 -10 -23 -22 -22 -11 -42 -24 -45
-28 -8 -12 -51 -32 -57 -27 -2 3 5 11 17 17 12 6 19 14 17 17 -3 2 -18 -2 -35
-11 -16 -8 -32 -13 -34 -10 -3 2 -18 0 -34 -6 -27 -9 -28 -9 -10 5 11 8 24 15
29 15 5 0 7 7 3 15 -3 10 1 15 12 15 14 0 15 2 2 10 -11 7 -18 4 -25 -11 -6
-11 -28 -30 -48 -42 -20 -12 -36 -26 -36 -32 0 -5 -4 -10 -10 -12 -7 -1 -8 0
-1 4 5 2 8 8 5 13 -2 4 4 15 15 25 11 10 20 22 20 27 0 17 93 118 108 118 17
0 66 53 86 93 11 20 24 37 30 37 6 0 22 12 35 25 18 20 27 23 37 14 11 -9 8
-16 -16 -36z m-730 -13 c0 -5 -2 -10 -4 -10 -3 0 -8 5 -11 10 -3 6 -1 10 4 10
6 0 11 -4 11 -10z m180 -15 c0 -8 -4 -15 -10 -15 -5 0 -10 -8 -10 -17 0 -14
-2 -15 -12 -4 -10 11 -10 14 0 18 6 3 12 11 12 19 0 8 5 14 10 14 6 0 10 -7
10 -15z m37 -47 c-2 -13 -4 -5 -4 17 -1 22 1 32 4 23 2 -10 2 -28 0 -40z m173
42 c0 -3 -5 -12 -10 -20 -8 -13 -10 -12 -10 4 0 11 -3 17 -6 13 -3 -3 -3 -15
1 -26 5 -17 9 -19 31 -9 19 9 27 9 37 -1 9 -9 9 -14 -3 -21 -20 -13 -3 -13 21
0 25 14 25 -2 -1 -18 -11 -7 -20 -18 -20 -26 0 -7 -9 -25 -20 -39 -17 -21 -18
-26 -5 -31 9 -3 15 0 15 8 0 7 10 21 21 32 12 10 25 28 29 38 3 11 16 20 28
21 27 2 28 -3 5 -21 -17 -13 -17 -14 1 -7 13 4 4 -13 -27 -52 -44 -56 -86 -84
-72 -47 4 11 -2 9 -19 -7 -14 -13 -25 -26 -24 -30 0 -3 0 -13 -1 -21 -1 -12
-3 -12 -17 2 -12 12 -14 20 -5 36 15 28 14 39 -5 39 -10 0 -14 -7 -11 -19 5
-16 3 -17 -9 -7 -11 9 -14 8 -14 -5 0 -10 5 -27 11 -38 8 -16 8 -19 -1 -13
-16 10 -38 65 -36 90 2 11 6 31 10 44 l8 24 14 -24 13 -24 2 25 c1 14 3 41 4
60 4 61 14 80 41 78 13 -1 24 -5 24 -8z m-866 -26 c25 -10 19 -22 -9 -16 -14
2 -22 8 -19 13 6 11 8 11 28 3z m2 -49 c9 -8 11 -15 6 -15 -5 0 -15 7 -22 15
-7 8 -9 15 -6 15 4 0 14 -7 22 -15z m135 -22 c13 -16 12 -17 -3 -4 -10 7 -18
15 -18 17 0 8 8 3 21 -13z m126 -19 c-3 -3 -12 -4 -19 -1 -8 3 -5 6 6 6 11 1
17 -2 13 -5z m285 -49 c-2 -14 -8 -25 -13 -25 -5 0 -5 -7 -2 -17 4 -10 2 -14
-5 -10 -18 12 -24 64 -10 86 11 19 14 19 24 6 6 -8 9 -26 6 -40z m155 15 c0
-40 0 -40 -15 -18 -11 16 -12 23 -4 26 7 2 12 10 12 18 0 8 2 14 4 14 2 0 3
-18 3 -40z m-397 10 c0 -5 -2 -10 -4 -10 -3 0 -8 5 -11 10 -3 6 -1 10 4 10 6
0 11 -4 11 -10z m350 -31 c0 -5 -4 -9 -10 -9 -5 0 -10 7 -10 16 0 8 5 12 10 9
6 -3 10 -10 10 -16z m-140 -69 c0 -13 -1 -13 -10 0 -5 8 -10 22 -10 30 0 13 1
13 10 0 5 -8 10 -22 10 -30z m27 -12 c-3 -8 -6 -5 -6 6 -1 11 2 17 5 13 3 -3
4 -12 1 -19z m216 -27 c-8 -10 -35 28 -28 39 5 8 11 4 19 -12 7 -12 11 -25 9
-27z m127 35 c0 -2 -7 -9 -15 -16 -13 -11 -14 -10 -9 4 5 14 24 23 24 12z
m-327 -66 c3 -11 2 -22 -3 -25 -4 -3 -10 8 -12 25 -5 32 6 32 15 0z m167 -23
c0 -5 -4 -5 -10 -2 -5 3 -10 14 -10 23 0 15 2 15 10 2 5 -8 10 -19 10 -23z
m53 18 c4 -9 -1 -11 -14 -8 -26 7 -32 19 -9 20 10 1 21 -4 23 -12z m277 5 c0
-5 -6 -10 -12 -10 -10 0 -10 -2 0 -9 10 -6 7 -12 -12 -24 -30 -20 -53 -22 -58
-5 -3 8 -11 7 -28 -5 -14 -9 -29 -17 -34 -17 -6 0 10 12 35 28 25 15 54 32 65
39 24 15 44 16 44 3z m95 0 c-3 -5 -21 -9 -38 -9 l-32 2 35 7 c19 4 36 8 38 9
2 0 0 -3 -3 -9z m-658 -37 c-3 -10 -5 -4 -5 12 0 17 2 24 5 18 2 -7 2 -21 0
-30z m325 25 c-7 -7 -12 -20 -12 -29 0 -10 -5 -21 -10 -24 -7 -4 -8 3 -4 22 9
36 13 43 27 43 8 0 8 -3 -1 -12z m-482 -48 c8 -5 12 -11 9 -14 -3 -3 -14 1
-25 9 -21 16 -8 20 16 5z m410 -35 c7 -9 8 -15 2 -15 -5 0 -12 7 -16 15 -3 8
-4 15 -2 15 2 0 9 -7 16 -15z m44 -11 c3 -8 2 -12 -4 -9 -6 3 -10 10 -10 16 0
14 7 11 14 -7z m-404 2 c0 -3 -4 -8 -10 -11 -5 -3 -10 -1 -10 4 0 6 5 11 10
11 6 0 10 -2 10 -4z m305 -47 c4 -6 13 -8 21 -5 8 3 14 1 14 -4 0 -6 -5 -10
-11 -10 -9 0 -9 -4 0 -14 8 -10 5 -19 -14 -40 -27 -30 -35 -32 -35 -12 0 8 -5
16 -11 18 -9 3 -9 13 0 41 13 37 24 46 36 26z m-115 -35 c0 -14 -3 -14 -15 -4
-8 7 -15 14 -15 16 0 2 7 4 15 4 8 0 15 -7 15 -16z m60 8 c0 -5 -10 -17 -22
-28 -12 -10 -18 -14 -15 -7 4 6 2 13 -5 15 -6 2 -8 10 -4 16 8 14 46 16 46 4z
m79 -215 c0 -9 -2 -8 -6 1 -2 6 -10 9 -15 6 -7 -4 -8 -2 -4 5 9 13 26 5 25
-12z m-89 -6 c0 -5 -9 -11 -20 -14 -11 -3 -20 -1 -20 4 0 5 7 9 16 9 9 0 12 5
8 12 -4 7 -3 8 4 4 7 -4 12 -11 12 -15z"/>
<path d="M1659 1023 c-13 -16 -12 -17 4 -4 16 13 21 21 13 21 -2 0 -10 -8 -17
-17z"/>
<path d="M1656 951 c-10 -10 -13 -22 -8 -25 5 -3 14 6 20 19 14 30 11 31 -12
6z"/>
<path d="M1705 940 c3 -5 8 -10 11 -10 2 0 4 5 4 10 0 6 -5 10 -11 10 -5 0 -7
-4 -4 -10z"/>
<path d="M1636 893 c-6 -14 -5 -15 5 -6 7 7 10 15 7 18 -3 3 -9 -2 -12 -12z"/>
<path d="M960 889 c0 -5 5 -7 10 -4 6 3 10 8 10 11 0 2 -4 4 -10 4 -5 0 -10
-5 -10 -11z"/>
<path d="M931 814 c0 -11 3 -14 6 -6 3 7 2 16 -1 19 -3 4 -6 -2 -5 -13z"/>
<path d="M925 760 c3 -5 8 -10 11 -10 2 0 4 5 4 10 0 6 -5 10 -11 10 -5 0 -7
-4 -4 -10z"/>
<path d="M870 630 c0 -5 5 -10 11 -10 5 0 7 5 4 10 -3 6 -8 10 -11 10 -2 0 -4
-4 -4 -10z"/>
<path d="M956 621 c-3 -5 1 -14 9 -21 13 -10 15 -9 15 9 0 21 -14 28 -24 12z"/>
<path d="M658 590 c18 -17 38 -30 45 -30 6 0 3 7 -8 16 -11 8 -28 21 -38 29
-32 28 -32 15 1 -15z"/>
<path d="M930 596 c0 -2 7 -9 15 -16 13 -11 14 -10 9 4 -5 14 -24 23 -24 12z"/>
<path d="M915 540 c10 -11 20 -18 23 -15 7 6 -18 35 -31 35 -5 0 -2 -9 8 -20z"/>
<path d="M953 540 c-1 -11 2 -22 8 -25 5 -4 9 3 9 14 0 26 -15 35 -17 11z"/>
<path d="M1436 1106 c-13 -20 -13 -24 -2 -20 8 3 17 13 20 21 10 26 0 25 -18
-1z"/>
<path d="M1645 739 c-8 -25 -54 -68 -72 -69 -7 0 -13 -5 -13 -11 0 -6 15 -1
33 10 19 11 37 19 40 16 4 -3 5 -2 2 2 -3 3 3 15 12 25 19 21 26 48 13 48 -5
0 -12 -10 -15 -21z"/>
<path d="M1386 713 c-6 -14 -5 -15 5 -6 7 7 10 15 7 18 -3 3 -9 -2 -12 -12z"/>
<path d="M1366 673 c-6 -14 -5 -15 5 -6 7 7 10 15 7 18 -3 3 -9 -2 -12 -12z"/>
<path d="M1045 641 c-3 -5 -1 -12 5 -16 5 -3 10 1 10 9 0 18 -6 21 -15 7z"/>
<path d="M187 1715 c3 -27 7 -52 9 -54 8 -9 2 65 -6 84 -6 13 -7 2 -3 -30z"/>
<path d="M430 1054 c0 -8 5 -12 10 -9 6 4 8 11 5 16 -9 14 -15 11 -15 -7z"/>
<path d="M430 968 c0 -42 11 -55 27 -29 8 13 7 23 -8 42 l-19 24 0 -37z"/>
<path d="M600 565 c0 -16 26 -55 37 -55 10 0 7 9 -9 30 -21 29 -28 35 -28 25z"/>
<path d="M746 491 c-3 -5 4 -11 16 -14 30 -8 35 -1 9 12 -11 6 -22 7 -25 2z"/>
<path d="M1510 255 c0 -8 2 -15 4 -15 2 0 6 7 10 15 3 8 1 15 -4 15 -6 0 -10
-7 -10 -15z"/>
<path d="M1487 215 c-4 -8 -14 -15 -24 -15 -15 0 -15 -2 -3 -9 10 -7 18 -4 28
10 8 11 12 22 9 25 -2 3 -7 -2 -10 -11z"/>
</g>
</svg>
